<svg width="1394" height="872" viewBox="0 0 1394 872" fill="none" xmlns="http://www.w3.org/2000/svg">
<path d="M47.0252 86.3459C34.0188 71.3857 18.3878 59.7432 5.61067 44.7353C5.51061 40.8012 6.6659 36.4851 8.46453 34.7555C13.2194 30.1834 12.6968 15.0264 12.6968 8.96038C12.6968 1.22697 19.6616 -1.45627 28.4502 0.738806C35.7742 2.56806 43.2879 4.68045 51.4926 5.77452C56.0206 6.37831 64.7015 6.65861 68.7743 8.24099C71.4793 9.29191 70.8064 12.6388 73.2417 13.585C75.3188 14.392 79.2014 14.6089 80.4131 16.4626C81.9988 18.8883 85.953 21.3144 88.4074 23.2454C96.334 29.4817 106.444 35.0873 115.682 39.894C128.556 46.5929 139.295 56.6307 149.775 65.792C152.692 68.3419 155.767 73.8918 158.828 75.4523C163.043 77.602 167.607 79.2326 171.407 82.0296C177.983 86.8706 191.693 87.9179 199.857 90.2511C208.553 92.7365 221.146 95.8585 228.425 100.631C243.633 110.602 259.411 117.295 276.861 124.473C298.33 133.305 313.874 149.708 335.642 157.154C365.406 167.335 388.787 179.928 412.646 198.468C425.944 208.801 443.58 212.617 458.26 220.974C469.997 227.655 482.818 235.089 495.175 240.706C517.691 250.941 545.601 264.882 562.421 281.814C574.089 293.559 589.043 307.233 605.684 313.672C632.369 323.997 643.919 341.801 662.35 360.33C674.866 372.912 686.879 383.611 703.614 391.88C721.982 400.956 733.335 420.163 744.761 435.146C758.001 452.507 787.066 458.273 804.836 471.321C820.767 483.019 830.872 497.52 848.805 507.496C863.057 515.424 882.914 518.643 898.416 524.967C908.065 528.903 917.421 533.652 927.337 537.504C956.687 548.908 984.426 561.566 1010.34 576.968C1021.71 583.729 1040.54 589.455 1053.72 592.486C1062.27 594.454 1080.42 598.859 1086.28 604.716C1090.15 608.576 1102.09 613.223 1107.8 615.609C1117.31 619.587 1125.68 623.857 1134.25 629.175C1146.82 636.986 1160.64 644.785 1173.98 651.784C1184.2 657.143 1193.66 662.92 1204.79 667.2C1220.39 673.201 1236.9 680.42 1246.29 693.406C1249.85 698.34 1254.67 708.012 1260.75 710.569C1268.43 713.803 1276.76 719.438 1282.49 724.956C1292.19 734.281 1308.86 742.477 1315.18 753.526C1320.63 763.052 1326.8 780.65 1338.45 785.179C1341.64 786.417 1341.31 790.047 1344.92 791.345C1349.21 792.89 1350.96 794.244 1354.33 797.101C1358.88 800.964 1364.67 805.484 1370.31 808.097C1374.4 809.99 1379.34 814.068 1383.95 814.571C1386.56 814.856 1386.98 818.961 1390.3 820.121C1400.94 823.842 1385.41 837.128 1383.83 839.647C1376.82 850.896 1353.02 859.148 1340.69 865.956C1335.74 868.689 1338.86 871.917 1332.11 871.917C1328.25 871.917 1324.32 872.104 1320.47 871.917C1312.75 871.542 1306.71 866.748 1299.31 866.367C1291.46 865.964 1282.32 862.668 1273.44 862.668C1269.88 862.668 1244.25 860.412 1242.29 857.837C1237.67 851.783 1238.9 853.628 1232.06 849.719C1225.13 845.755 1219.36 840.78 1211.6 837.797C1200.33 833.461 1189.95 826.024 1179.63 820.121C1170.67 815.001 1162.46 807.833 1155.41 800.903C1152.46 798.002 1146.13 794.559 1142.24 792.373C1133.94 787.705 1121.04 786.175 1114.26 780.246C1107.5 774.333 1097.02 771.577 1090.98 765.345C1085.14 759.305 1076.94 754.793 1071.7 748.388L1071.53 748.171C1066.91 742.524 1060.64 734.844 1052.54 733.178C1044.19 731.461 1036.07 728.874 1027.85 726.703C1021.49 725.022 1020.79 721.667 1015.74 719.201C1001.54 712.264 991.243 703.55 978.124 695.359C961.69 685.098 942.287 678.838 926.867 666.583C921.76 662.525 914.678 658.725 908.997 655.073C904.03 651.88 898.189 651.483 893.008 648.701C884.431 644.095 876.585 638.693 867.85 634.211C843.545 621.74 827.783 600.251 801.662 590.636C785.852 584.817 768.547 581.127 753.814 573.268C742.413 567.187 735.356 555.643 723.6 549.22C697.579 535.003 670.618 523.185 647.419 505.44C637.772 498.061 627.391 491.685 616.735 485.298C602.454 476.737 581.529 468.294 571.826 455.289C566.097 447.609 557.585 438.171 549.019 432.68C539.531 426.597 525.134 425.778 514.926 420.758C495.302 411.109 481.989 399.153 466.725 385.405C459.609 378.997 452.857 377.794 444.623 372.559C434.635 366.209 420.278 365.433 411 359.096C406.584 356.08 396.053 350.279 390.544 348.819C384.602 347.245 382.644 342.995 377.495 339.879C359.867 329.211 340.467 322.059 323.768 310.589C318.312 306.841 315.05 302.003 309.426 298.462C305.957 296.279 302.47 290.484 299.198 289.213C277.818 280.907 260.207 273.652 242.415 259.513C233.142 252.144 230.29 234.566 220.078 229.607C215.557 227.411 215.027 224.195 209.615 222.618C201.315 220.2 192.908 220.145 184.574 217.069C172.525 212.622 166.704 206.38 158.24 198.981C153.543 194.876 147.574 187.071 142.251 185.21C137.023 183.382 133.943 177.894 128.967 175.447C121.629 171.839 114.507 168.509 107.217 164.656C95.9733 158.713 85.316 153.513 79.9428 143.075C73.4734 130.507 65.7644 116.753 61.8381 103.406C59.695 96.1201 52.2569 92.3636 47.0252 86.3459Z" fill="#FF0000"/>
</svg>
