<svg width="1399" height="857" viewBox="0 0 1399 857" fill="none" xmlns="http://www.w3.org/2000/svg">
<path d="M111.626 835.987C90.1445 841.059 71.9812 849.576 50.502 854.44C45.7243 853.02 40.8147 850.412 39.1978 848.259C34.9235 842.568 16.4805 837.21 9.1541 834.892C-0.18601 831.937 -1.59895 825.135 3.35862 818.683C7.48998 813.307 12.0131 807.882 15.4876 801.494C17.4052 797.969 20.0219 790.875 23.0018 788.102C24.981 786.26 28.8467 788.097 30.6285 786.438C32.1483 785.023 33.4292 781.886 35.9859 781.589C39.3318 781.201 43.2997 778.848 46.2759 777.55C55.8881 773.358 65.3116 767.113 73.5413 761.287C85.0105 753.168 99.9521 748.096 113.767 742.903C117.612 741.458 125.122 741.028 127.81 739.086C131.513 736.411 134.68 733.248 139.055 731.165C146.628 727.56 151.49 716.588 156.451 710.707C161.735 704.443 168.81 695.191 176.484 690.977C192.518 682.172 204.743 671.642 217.992 659.91C234.292 645.477 258.182 638.851 272.888 623.64C292.996 602.841 314.341 588.259 342.994 575.552C358.964 568.47 368.201 555.3 382.147 546.316C393.295 539.134 405.639 531.339 415.666 523.235C433.936 508.47 458.098 490.646 482.962 483.163C500.209 477.973 520.649 470.794 532.793 459.451C552.266 441.261 576.8 438.484 604.015 430.276C622.496 424.702 638.571 418.825 652.949 408.103C668.731 396.335 694.909 394.258 716.003 390.505C740.445 386.156 755.036 364.25 775.459 354.496C793.768 345.752 813.934 342.911 830.688 331.848C844.005 323.055 853.103 307.814 864.809 297.372C872.095 290.873 880.286 284.926 887.541 278.173C909.016 258.185 931.584 240.013 956.986 224.406C968.137 217.555 979.994 204.122 987.112 194.352C991.734 188.008 1001.82 174.638 1010.43 172.013C1016.1 170.283 1024.85 162.152 1029.23 158.33C1036.53 151.957 1043.89 146.643 1052.56 141.572C1065.29 134.125 1078.34 125.646 1090.29 117.251C1099.44 110.824 1108.9 105.187 1116.99 97.5916C1128.34 86.9423 1141.39 76.0021 1159.54 73.1818C1166.43 72.1102 1179.38 71.807 1184.06 67.7452C1189.98 62.6061 1198.97 57.8542 1207.14 55.2023C1220.95 50.7217 1235.22 40.0298 1250.23 39.0096C1263.16 38.13 1286.04 39.7347 1294.56 31.7962C1296.9 29.6266 1301.19 31.2857 1303.71 28.7889C1306.7 25.8199 1308.79 24.8879 1313.13 23.1867C1318.99 20.8858 1325.97 17.8114 1330.6 14.1263C1333.96 11.4568 1340.18 8.9199 1342 5.28825C1343.03 3.23491 1348.1 4.45212 1350.37 2.14288C1357.66 -5.26214 1369.63 12.7007 1372.26 14.9675C1384 25.0875 1387.72 47.9799 1392.71 60.8093C1394.71 65.9584 1399.43 64.6061 1397.66 70.2055C1396.64 73.4067 1395.84 76.7358 1394.6 79.8597C1392.12 86.1188 1384.75 89.2967 1382.35 95.2923C1379.8 101.644 1373.42 107.97 1371.09 115.332C1370.15 118.29 1360.71 138.684 1357.08 139.329C1348.56 140.845 1351.11 140.531 1344.59 144.71C1337.98 148.948 1330.46 151.831 1324.82 157.123C1316.63 164.818 1304.92 170.582 1295.08 176.893C1286.55 182.367 1275.74 186.441 1265.52 189.638C1261.24 190.976 1255.42 194.91 1251.76 197.301C1243.94 202.407 1238.71 212.516 1229.77 215.876C1220.85 219.228 1214.77 226.868 1205.66 229.49C1196.84 232.032 1189.23 237.11 1180.12 239.004L1179.82 239.068C1171.79 240.736 1160.86 243.006 1156.73 249.087C1152.46 255.356 1147.2 261.108 1142.43 267.092C1138.73 271.726 1134.49 271.025 1130.19 274.269C1118.08 283.398 1104.86 288.612 1091.52 296.364C1074.81 306.075 1062.16 319.777 1043.31 327.886C1037.07 330.571 1030.62 334.993 1024.72 338.31C1019.56 341.211 1017.55 345.904 1012.83 349.138C1005.02 354.493 996.434 358.936 988.728 364.47C967.288 379.865 937.197 384.728 918.731 402.721C907.553 413.612 898.555 426.556 885.197 435.774C874.861 442.907 859.066 444.35 848.224 451.647C824.224 467.799 802.875 485.646 775.356 498.109C763.911 503.292 753.486 509.466 742.976 515.864C728.889 524.439 713.2 538.57 694.947 541.649C684.168 543.467 670.535 546.921 661.655 551.928C651.819 557.474 647.051 569.103 638.309 575.653C621.505 588.243 603.572 594.718 582.962 602.126C573.354 605.579 570.129 610.721 561.647 615.55C551.356 621.409 546.65 633.021 536.563 638.296C531.761 640.807 521.991 647.325 518.783 651.337C515.322 655.664 509.675 655.664 504.559 658.745C487.049 669.29 473.32 682.65 455.085 692.118C449.127 695.213 442.427 696.069 436.675 699.382C433.128 701.424 425.214 702.103 422.82 704.331C407.177 718.892 393.794 730.727 372.047 740.083C360.714 744.959 338.736 740.608 330.066 747.184C326.228 750.095 322.205 749.306 318.88 753.193C313.781 759.153 311.508 766.106 305.606 771.843C297.072 780.138 288.007 782.582 276.85 786.775C270.658 789.102 259.666 791.072 256.021 794.776C252.442 798.414 245.005 798.871 240.743 802.064C234.46 806.772 228.569 811.408 222.003 815.982C211.874 823.038 202.797 829.891 188.78 830.359C171.903 830.923 153.269 832.062 136.118 830.219C126.756 829.212 120.267 833.947 111.626 835.987Z" fill="#FF0000"/>
</svg>
